<mxfile host="app.diagrams.net" modified="2023-11-30T07:47:12.785Z" agent="Mozilla/5.0 (Macintosh; Intel Mac OS X 10_15_7) AppleWebKit/537.36 (KHTML, like Gecko) Chrome/119.0.0.0 Safari/537.36" etag="JX9ZEa3KY_Hwolu5e6Y1" version="22.1.5" type="github">
  <diagram name="第 1 页" id="lpY09yJB2JzATnIjoB9Q">
    <mxGraphModel dx="541" dy="872" grid="1" gridSize="10" guides="1" tooltips="1" connect="1" arrows="1" fold="1" page="1" pageScale="1" pageWidth="827" pageHeight="1169" math="0" shadow="0">
      <root>
        <mxCell id="0" />
        <mxCell id="1" parent="0" />
        <mxCell id="UGZcTaDrgIyGbtzRg7HA-19" value="" style="rounded=1;whiteSpace=wrap;html=1;" vertex="1" parent="1">
          <mxGeometry x="958" y="50" width="530" height="450" as="geometry" />
        </mxCell>
        <mxCell id="UGZcTaDrgIyGbtzRg7HA-20" value="&lt;font face=&quot;Times New Roman&quot; style=&quot;font-size: 30px;&quot;&gt;&lt;b&gt;Fin Co-Attention&amp;nbsp;&lt;/b&gt;&lt;/font&gt;&lt;font size=&quot;1&quot; face=&quot;Times New Roman&quot;&gt;&lt;b style=&quot;font-size: 30px;&quot;&gt;Adapter&lt;/b&gt;&lt;/font&gt;" style="text;html=1;align=center;verticalAlign=middle;resizable=0;points=[];autosize=1;strokeColor=none;fillColor=none;" vertex="1" parent="1">
          <mxGeometry x="1048" y="80.00142857142873" width="360" height="50" as="geometry" />
        </mxCell>
        <mxCell id="UGZcTaDrgIyGbtzRg7HA-21" value="&lt;b style=&quot;border-color: var(--border-color); font-family: &amp;quot;Times New Roman&amp;quot;; font-size: 30px;&quot;&gt;Phrase2Sentence&lt;/b&gt;" style="rounded=1;whiteSpace=wrap;html=1;fillColor=#d5e8d4;strokeColor=#82b366;" vertex="1" parent="1">
          <mxGeometry x="1108" y="160" width="240" height="87.31" as="geometry" />
        </mxCell>
        <mxCell id="UGZcTaDrgIyGbtzRg7HA-22" value="&lt;b style=&quot;border-color: var(--border-color); font-family: &amp;quot;Times New Roman&amp;quot;; font-size: 30px;&quot;&gt;Sentence2&lt;/b&gt;&lt;b style=&quot;border-color: var(--border-color); font-family: &amp;quot;Times New Roman&amp;quot;; font-size: 30px;&quot;&gt;Phrase&lt;/b&gt;" style="rounded=1;whiteSpace=wrap;html=1;fillColor=#d5e8d4;strokeColor=#82b366;" vertex="1" parent="1">
          <mxGeometry x="1106" y="322.4000000000001" width="240" height="87.6" as="geometry" />
        </mxCell>
        <mxCell id="UGZcTaDrgIyGbtzRg7HA-23" value="&lt;div&gt;&lt;font style=&quot;font-size: 30px;&quot;&gt;X&lt;/font&gt;&lt;/div&gt;" style="ellipse;whiteSpace=wrap;html=1;aspect=fixed;" vertex="1" parent="1">
          <mxGeometry x="1048" y="182.79999999999995" width="40" height="40" as="geometry" />
        </mxCell>
        <mxCell id="UGZcTaDrgIyGbtzRg7HA-24" value="&lt;div&gt;&lt;font style=&quot;font-size: 30px;&quot;&gt;X&lt;/font&gt;&lt;/div&gt;" style="ellipse;whiteSpace=wrap;html=1;aspect=fixed;" vertex="1" parent="1">
          <mxGeometry x="1048" y="343.0857142857144" width="40" height="40" as="geometry" />
        </mxCell>
        <mxCell id="UGZcTaDrgIyGbtzRg7HA-25" value="&lt;div&gt;&lt;font style=&quot;font-size: 30px;&quot;&gt;X&lt;/font&gt;&lt;/div&gt;" style="ellipse;whiteSpace=wrap;html=1;aspect=fixed;" vertex="1" parent="1">
          <mxGeometry x="1358" y="182.79999999999995" width="40" height="40" as="geometry" />
        </mxCell>
        <mxCell id="UGZcTaDrgIyGbtzRg7HA-26" value="&lt;div&gt;&lt;font style=&quot;font-size: 30px;&quot;&gt;X&lt;/font&gt;&lt;/div&gt;" style="ellipse;whiteSpace=wrap;html=1;aspect=fixed;" vertex="1" parent="1">
          <mxGeometry x="1358" y="343.0857142857144" width="40" height="40" as="geometry" />
        </mxCell>
        <mxCell id="UGZcTaDrgIyGbtzRg7HA-27" value="" style="group" vertex="1" connectable="0" parent="1">
          <mxGeometry x="978" y="190" width="50" height="170" as="geometry" />
        </mxCell>
        <mxCell id="UGZcTaDrgIyGbtzRg7HA-28" value="" style="rounded=1;whiteSpace=wrap;html=1;direction=west;rotation=90;container=0;" vertex="1" parent="UGZcTaDrgIyGbtzRg7HA-27">
          <mxGeometry x="-60" y="60" width="170" height="50" as="geometry" />
        </mxCell>
        <mxCell id="UGZcTaDrgIyGbtzRg7HA-29" value="" style="ellipse;whiteSpace=wrap;html=1;aspect=fixed;fillColor=#dae8fc;direction=west;container=0;" vertex="1" parent="UGZcTaDrgIyGbtzRg7HA-27">
          <mxGeometry x="10" y="9" width="30" height="30" as="geometry" />
        </mxCell>
        <mxCell id="UGZcTaDrgIyGbtzRg7HA-30" value="" style="ellipse;whiteSpace=wrap;html=1;aspect=fixed;fillColor=#dae8fc;direction=west;container=0;" vertex="1" parent="UGZcTaDrgIyGbtzRg7HA-27">
          <mxGeometry x="10" y="50" width="30" height="30" as="geometry" />
        </mxCell>
        <mxCell id="UGZcTaDrgIyGbtzRg7HA-31" value="" style="ellipse;whiteSpace=wrap;html=1;aspect=fixed;fillColor=#dae8fc;direction=west;container=0;" vertex="1" parent="UGZcTaDrgIyGbtzRg7HA-27">
          <mxGeometry x="10" y="91" width="30" height="30" as="geometry" />
        </mxCell>
        <mxCell id="UGZcTaDrgIyGbtzRg7HA-32" value="" style="ellipse;whiteSpace=wrap;html=1;aspect=fixed;fillColor=#dae8fc;direction=west;container=0;" vertex="1" parent="UGZcTaDrgIyGbtzRg7HA-27">
          <mxGeometry x="10" y="132" width="30" height="30" as="geometry" />
        </mxCell>
        <mxCell id="UGZcTaDrgIyGbtzRg7HA-33" value="" style="rounded=1;whiteSpace=wrap;html=1;direction=west;rotation=90;container=0;" vertex="1" parent="1">
          <mxGeometry x="1353" y="249.5" width="170" height="50" as="geometry" />
        </mxCell>
        <mxCell id="UGZcTaDrgIyGbtzRg7HA-34" value="" style="ellipse;whiteSpace=wrap;html=1;aspect=fixed;fillColor=#e1d5e7;direction=west;container=0;" vertex="1" parent="1">
          <mxGeometry x="1423" y="198.5" width="30" height="30" as="geometry" />
        </mxCell>
        <mxCell id="UGZcTaDrgIyGbtzRg7HA-35" value="" style="ellipse;whiteSpace=wrap;html=1;aspect=fixed;fillColor=#e1d5e7;direction=west;container=0;" vertex="1" parent="1">
          <mxGeometry x="1423" y="239.5" width="30" height="30" as="geometry" />
        </mxCell>
        <mxCell id="UGZcTaDrgIyGbtzRg7HA-36" value="" style="ellipse;whiteSpace=wrap;html=1;aspect=fixed;fillColor=#e1d5e7;direction=west;container=0;" vertex="1" parent="1">
          <mxGeometry x="1423" y="280.5" width="30" height="30" as="geometry" />
        </mxCell>
        <mxCell id="UGZcTaDrgIyGbtzRg7HA-37" value="" style="ellipse;whiteSpace=wrap;html=1;aspect=fixed;fillColor=#e1d5e7;direction=west;container=0;" vertex="1" parent="1">
          <mxGeometry x="1423" y="321.5" width="30" height="30" as="geometry" />
        </mxCell>
      </root>
    </mxGraphModel>
  </diagram>
</mxfile>
